HIERARCHY
ROOT Hips
{
	OFFSET	0	0	0
	CHANNELS 6  Xposition Yposition Zposition Xrotation Yrotation Zrotation
	JOINT Spine
	{
		OFFSET	0	0.0328084	0
		CHANNELS 6  Xrotation Yrotation Zrotation Xposition Yposition Zposition
		JOINT Spine1
		{
			OFFSET	0	0.381725	-0.0681652
			CHANNELS 6  Xrotation Yrotation Zrotation Xposition Yposition Zposition
			JOINT Spine2
			{
				OFFSET	0	0.289361	0.0310152
				CHANNELS 6  Xrotation Yrotation Zrotation Xposition Yposition Zposition
				JOINT Spine3
				{
					OFFSET	0	0.346279	0.102929
					CHANNELS 6  Xrotation Yrotation Zrotation Xposition Yposition Zposition
					JOINT Spine4
					{
						OFFSET	0	0.512602	-0.0524872
						CHANNELS 3  Xrotation Yrotation Zrotation
						JOINT Neck
						{
							OFFSET	0	0.244713	-0.171435
							CHANNELS 3  Xrotation Yrotation Zrotation
							JOINT Head
							{
								OFFSET	0	0.293792	-0.0879331
								CHANNELS 3  Xrotation Yrotation Zrotation
								End Site
								{
									OFFSET	0	0.612805	-0.0296519
								}
							}
						}
					}
					JOINT LeftShoulder
					{
						OFFSET	-0.147237	0.62303	-0.293792
						CHANNELS 3  Xrotation Yrotation Zrotation
						JOINT LeftArm
						{
							OFFSET	-0.396551	-0.0879331	0.112814
							CHANNELS 3  Xrotation Yrotation Zrotation
							JOINT LeftForeArm
							{
								OFFSET	-1.08107	-0.0493418	0.0771655
								CHANNELS 3  Xrotation Yrotation Zrotation
								JOINT LeftHand
								{
									OFFSET	-0.926108	-0.0639993	0.0661046
									CHANNELS 3  Xrotation Yrotation Zrotation
									End Site
									{
										OFFSET	-0.337983	-0.0233566	0.0241233
									}
								}
							}
						}
					}
					JOINT RightShoulder
					{
						OFFSET	0.147237	0.62303	-0.293792
						CHANNELS 3  Xrotation Yrotation Zrotation
						JOINT RightArm
						{
							OFFSET	0.396551	-0.0879331	0.112814
							CHANNELS 3  Xrotation Yrotation Zrotation
							JOINT RightForeArm
							{
								OFFSET	1.08107	-0.0493418	0.0771655
								CHANNELS 3  Xrotation Yrotation Zrotation
								JOINT RightHand
								{
									OFFSET	0.926108	-0.0639993	0.0661046
									CHANNELS 3  Xrotation Yrotation Zrotation
									End Site
									{
										OFFSET	0.337983	-0.0233566	0.0241233
									}
								}
							}
						}
					}
				}
			}
		}
	}
	JOINT LeftUpLeg
	{
		OFFSET	-0.373886	-0.287466	-0.0671427
		CHANNELS 3  Xrotation Yrotation Zrotation
		JOINT LeftLeg
		{
			OFFSET	0.00603979	-1.45961	-0.0228169
			CHANNELS 3  Xrotation Yrotation Zrotation
			JOINT LeftFoot
			{
				OFFSET	-0.0790355	-1.45688	0.125291
				CHANNELS 3  Xrotation Yrotation Zrotation
				JOINT LeftToeBase
				{
					OFFSET	0	-0.135242	-0.359203
					CHANNELS 3  Xrotation Yrotation Zrotation
					End Site
					{
						OFFSET	0	-0.054097	-0.216388
					}
				}
			}
		}
	}
	JOINT RightUpLeg
	{
		OFFSET	0.373886	-0.287466	-0.0671427
		CHANNELS 3  Xrotation Yrotation Zrotation
		JOINT RightLeg
		{
			OFFSET	-0.00603979	-1.45961	-0.0228169
			CHANNELS 3  Xrotation Yrotation Zrotation
			JOINT RightFoot
			{
				OFFSET	0.0790355	-1.45688	0.125291
				CHANNELS 3  Xrotation Yrotation Zrotation
				JOINT RightToeBase
				{
					OFFSET	0	-0.135242	-0.359203
					CHANNELS 3  Xrotation Yrotation Zrotation
					End Site
					{
						OFFSET	0	-0.054097	-0.216388
					}
				}
			}
		}
	}
}
MOTION
Frames: 9
Frame Time: 0.02
 -3.84393 3.60957 -1.51014 12.8141 -10.0268 10.1471 170.7 -179.992 179.154 0 -0.000659053 0 174.42 -179.984 178.589 0 -0.000659053 0 175.041 -179.951 178.589 0 -0.000659053 0 1.85402 -0.00820099 -0.846504 0 -0.000659053 0 173.786 -179.969 -179.719 173.515 178.04 169.97 178.092 167.812 178.34 175.496 -163.808 170.357 178.922 156.161 -94.5164 8.65412 -24.6474 3.64254 -0 -7.08167 18.6694 176.605 158.91 -172.653 168.951 -168.173 98.0212 59.0467 19.5803 -29.3976 -0 -4.88002 -5.98037 164.051 174.507 -179.315 172.678 -157.493 -180 0.684198 -0.0302003 1.15312 173.464 180 -180 16.1816 -18.6186 -0.789883 107.586 149.53 180 174.916 -179.911 177.541 160.225 180 -180
 -3.83908 3.5966 -1.54378 12.8412 -8.9971 10.0342 170.856 -179.995 179.008 0 -0.000459789 0 174.513 -179.99 178.346 0 -0.000459789 0 175.117 -179.97 178.346 0 -0.000459789 0 1.84604 -0.00500165 -0.99228 0 -0.000459789 0 173.944 -179.965 -179.671 173.677 178.376 169.91 178.151 168.318 178.267 175.64 -162.935 170.642 179.24 156.576 -94.7961 8.4128 -24.4091 3.66615 -0 -6.63295 18.7824 176.727 160.341 -172.939 168.34 -167.117 98.3371 58.8242 19.37 -28.8462 -0 -4.84158 -5.80434 163.26 174.67 -179.345 174.649 -158.271 -180 0.610381 -0.0156697 1.13024 173.25 180 -180 19.208 -19.09 -0.306907 106.605 149.635 180 174.496 -179.923 177.738 159.861 180 -180
 -3.83929 3.57699 -1.57641 12.6788 -8.26387 9.67912 171.039 179.997 178.93 0 -0.000171343 0 174.624 179.995 178.216 0 -0.000171343 0 175.174 179.984 178.216 0 -0.000171343 0 1.93437 0.00267459 -1.07045 0 -0.000171343 0 174.358 -179.965 -179.645 174.203 178.706 169.98 178.319 168.821 178.212 175.789 -162.109 170.942 179.388 156.949 -94.8859 8.20183 -24.1996 3.56695 -0 -6.19182 18.8776 176.88 161.834 -173.297 167.729 -166.086 98.5867 58.6188 19.194 -28.2929 -0 -4.88408 -5.69892 162.582 174.702 -179.063 176.678 -159.091 -180 0.570785 -0.0545843 1.10737 173.072 180 -180 21.8788 -19.3296 0.406129 106.785 149.32 180 174.139 179.994 177.946 159.525 180 -180
 -3.83592 3.56674 -1.60833 12.3391 -7.96733 9.24893 171.298 179.99 178.931 0 0.000135759 0 174.779 179.98 178.218 0 0.000135759 0 175.333 179.941 178.218 0 0.000135759 0 1.82341 0.00981641 -1.06921 0 0.000135759 0 174.391 -179.965 -179.645 174.198 178.774 170.347 178.314 169.271 178.275 175.912 -161.247 171.189 179.583 157.22 -95.0678 8.02666 -24.0637 3.38825 -0 -5.70073 18.7326 176.927 163.27 -173.426 167.312 -165.287 98.5945 58.3972 18.955 -28.0218 -0 -4.97808 -5.68813 161.735 174.778 -178.489 178.54 -159.936 -180 0.613322 -0.0253955 1.07176 172.947 180 -180 24.3549 -19.6909 1.23454 108.492 148.832 180 173.598 -180 178.142 159.207 180 -180
 -3.82555 3.55694 -1.64865 12.2624 -7.9089 8.46468 171.594 -179.999 179.012 0 0.000587416 0 174.957 -179.997 178.354 0 0.000587416 0 175.549 -179.991 178.354 0 0.000587416 0 1.58486 -0.00147344 -0.987716 0 0.000587416 0 174.172 -179.967 -179.672 173.83 178.741 170.798 178.195 169.711 178.38 175.933 -160.541 171.218 179.068 157.412 -95.159 7.70514 -23.3989 3.11868 -0 -4.9834 18.4241 176.974 164.829 -173.563 166.87 -164.666 98.1574 58.2025 18.8217 -27.7092 -0 -5.15725 -5.70651 160.797 174.969 -177.856 179.658 -160.534 -180 0.666844 -0.0726491 1.05978 172.865 180 -180 26.097 -20.3791 2.15284 110.981 148.98 180 174.148 179.98 178.289 158.871 180 -180
 -3.81328 3.54903 -1.68843 12.342 -7.8486 7.81938 171.92 -179.997 179.105 0 0.00110362 0 175.152 -179.993 178.509 0 0.00110362 0 175.768 -179.98 178.509 0 0.00110362 0 1.38458 -0.00328575 -0.894784 0 0.00110362 0 174.074 -179.969 -179.703 173.614 178.86 171.138 178.127 170.281 178.433 175.882 -159.895 171.094 178.69 157.551 -95.5398 7.44539 -22.9228 3.08212 -0 -4.35941 18.029 176.99 166.268 -173.633 166.261 -164.158 97.493 58.0694 18.7669 -27.4259 -0 -5.28795 -5.72138 160.075 175.134 -177.375 179.822 -160.47 -180 0.651815 -0.0600416 1.05608 172.826 180 -180 27.0722 -20.7225 3.27422 113.977 149.407 180 174.829 -179.985 178.493 158.486 180 -180
 -3.80498 3.54536 -1.72992 12.2665 -8.45153 7.15131 172.153 -179.999 179.216 0 0.0016824 0 175.292 -179.998 178.694 0 0.0016824 0 175.963 -179.993 178.694 0 0.0016824 0 1.1237 -0.00119272 -0.783713 0 0.0016824 0 173.729 -179.971 -179.74 173.07 178.969 171.441 177.96 170.875 178.486 175.85 -159.232 171.013 178.749 157.656 -95.9981 7.26564 -22.5553 2.93871 -0 -3.78754 17.5235 176.992 167.447 -173.671 166.035 -163.794 97.0107 57.8957 18.6567 -27.1331 -0 -5.43283 -5.70951 159.818 175.288 -176.647 179.218 -160.492 180 0.74072 -0.00254218 1.04171 172.826 180 -180 27.6942 -21.3474 3.97588 117.788 150.059 180 175.61 179.999 178.723 158.084 180 -180
 -3.79897 3.54344 -1.76287 12.1868 -8.48238 6.49963 172.353 -179.991 179.302 0 0.0023185 0 175.412 -179.981 178.837 0 0.0023185 0 176.127 -179.944 178.837 0 0.0023185 0 0.911394 -0.00934725 -0.697642 0 0.0023185 0 173.461 -179.974 -179.769 172.619 179.25 171.37 177.83 171.438 178.432 175.893 -158.543 171.095 178.634 157.724 -96.2192 7.04735 -22.0289 2.67107 -0 -3.20034 16.9314 176.979 167.935 -173.657 166.347 -163.609 96.6439 57.6661 18.502 -26.7401 -0 -5.60903 -5.57494 159.82 175.43 -176.074 178.042 -160.573 -180 0.894346 0.0175373 1.00766 172.875 180 -180 28.0191 -21.547 4.62881 122.625 150.965 180 0.0903291 -0.0438246 -0.940645 157.669 180 -180
 -3.792 3.54702 -1.79393 12.0899 -8.82301 5.82061 172.535 -179.991 179.394 0 0.00297696 0 175.521 -179.981 178.989 0 0.00297696 0 176.295 -179.944 178.989 0 0.00297696 0 0.659594 -0.00931874 -0.606391 0 0.00297696 0 173.079 -179.976 -179.799 172.013 179.525 171.295 177.652 172.033 178.378 175.928 -157.876 171.161 178.372 157.786 -96.5046 6.77653 -21.4495 2.50781 -0 -2.68028 16.3405 177.044 168.184 -173.803 166.486 -163.606 96.3682 57.1854 18.1118 -25.713 -0 -5.94022 -5.43853 159.971 175.481 -175.428 176.301 -160.827 -180 1.02406 0.0682329 0.949786 172.929 180 -180 27.9947 -21.8716 5.03469 128.381 151.736 180 3.11928 -0.0370908 -0.475827 157.224 180 -180
